<svg xmlns="http://www.w3.org/2000/svg" xmlns:xlink="http://www.w3.org/1999/xlink" width="270" zoomAndPan="magnify" viewBox="0 0 202.5 37.5" height="50" preserveAspectRatio="xMidYMid meet" version="1.0"><defs><g/><clipPath id="2c15430e21"><path d="M 32.191406 5 L 57 5 L 57 34 L 32.191406 34 Z M 32.191406 5 " clip-rule="nonzero"/></clipPath><clipPath id="9306f81ff6"><path d="M 35 2.628906 L 62.539062 2.628906 L 62.539062 12 L 35 12 Z M 35 2.628906 " clip-rule="nonzero"/></clipPath><clipPath id="8d48e5c77c"><path d="M 35 27 L 62.539062 27 L 62.539062 36.675781 L 35 36.675781 Z M 35 27 " clip-rule="nonzero"/></clipPath><clipPath id="7fcee552ac"><path d="M 44.351562 16.164062 L 53.234375 16.164062 L 53.234375 25 L 44.351562 25 Z M 44.351562 16.164062 " clip-rule="nonzero"/></clipPath><clipPath id="7c4fbd5625"><path d="M 45.414062 19.929688 C 45.445312 19.925781 45.480469 19.925781 45.515625 19.933594 L 45.917969 18.835938 C 45.832031 18.804688 45.765625 18.730469 45.75 18.632812 C 45.726562 18.492188 45.828125 18.363281 45.976562 18.339844 C 46.054688 18.328125 46.128906 18.351562 46.1875 18.394531 L 46.984375 17.726562 C 46.960938 17.695312 46.945312 17.660156 46.941406 17.617188 C 46.917969 17.476562 47.019531 17.34375 47.167969 17.320312 C 47.296875 17.304688 47.414062 17.375 47.460938 17.484375 L 48.75 17.164062 C 48.777344 17.042969 48.878906 16.941406 49.015625 16.925781 C 49.027344 16.921875 49.039062 16.921875 49.050781 16.921875 L 49.046875 16.398438 C 48.988281 16.386719 48.941406 16.339844 48.941406 16.28125 C 48.941406 16.214844 48.996094 16.164062 49.066406 16.164062 C 49.132812 16.164062 49.1875 16.214844 49.1875 16.28125 C 49.1875 16.332031 49.152344 16.378906 49.101562 16.394531 L 49.105469 16.921875 C 49.242188 16.941406 49.355469 17.042969 49.375 17.175781 C 49.382812 17.214844 49.382812 17.25 49.375 17.285156 L 50.980469 17.875 C 51.035156 17.773438 51.136719 17.695312 51.265625 17.675781 C 51.355469 17.660156 51.4375 17.679688 51.511719 17.71875 L 51.847656 17.117188 C 51.804688 17.085938 51.78125 17.039062 51.78125 16.988281 C 51.78125 16.894531 51.859375 16.820312 51.957031 16.820312 C 52.050781 16.820312 52.128906 16.894531 52.128906 16.988281 C 52.128906 17.078125 52.050781 17.15625 51.957031 17.15625 C 51.933594 17.15625 51.917969 17.152344 51.898438 17.144531 L 51.550781 17.757812 C 51.625 17.8125 51.675781 17.890625 51.691406 17.988281 C 51.714844 18.136719 51.640625 18.273438 51.523438 18.347656 L 51.96875 19.152344 C 51.992188 19.140625 52.019531 19.136719 52.042969 19.128906 C 52.21875 19.105469 52.382812 19.21875 52.40625 19.386719 C 52.433594 19.546875 52.320312 19.699219 52.15625 19.734375 L 52.273438 20.695312 C 52.371094 20.738281 52.445312 20.824219 52.460938 20.933594 C 52.488281 21.097656 52.367188 21.253906 52.191406 21.277344 C 52.179688 21.28125 52.167969 21.28125 52.152344 21.28125 L 51.960938 21.777344 C 52.097656 21.835938 52.199219 21.957031 52.222656 22.109375 C 52.257812 22.347656 52.089844 22.566406 51.839844 22.601562 C 51.816406 22.609375 51.785156 22.609375 51.757812 22.609375 L 51.71875 23.515625 C 51.789062 23.53125 51.847656 23.589844 51.847656 23.660156 C 51.847656 23.738281 51.777344 23.804688 51.695312 23.804688 C 51.609375 23.804688 51.542969 23.738281 51.542969 23.660156 C 51.542969 23.589844 51.59375 23.53125 51.664062 23.515625 L 51.703125 22.601562 C 51.597656 22.589844 51.5 22.535156 51.429688 22.457031 L 50.332031 23.253906 C 50.355469 23.289062 50.371094 23.332031 50.378906 23.378906 C 50.40625 23.550781 50.28125 23.714844 50.097656 23.738281 C 50.058594 23.746094 50.019531 23.746094 49.980469 23.738281 L 49.980469 24.222656 C 50.046875 24.253906 50.097656 24.308594 50.097656 24.398438 C 50.097656 24.492188 50 24.59375 49.894531 24.59375 C 49.785156 24.59375 49.703125 24.523438 49.691406 24.425781 L 48.863281 24.425781 C 48.847656 24.550781 48.738281 24.644531 48.609375 24.644531 C 48.476562 24.644531 48.371094 24.550781 48.355469 24.425781 L 47.75 24.390625 C 47.738281 24.484375 47.65625 24.554688 47.550781 24.554688 C 47.445312 24.554688 47.347656 24.453125 47.347656 24.363281 C 47.347656 24.273438 47.390625 24.226562 47.449219 24.191406 L 47.253906 23.605469 C 47.058594 23.632812 46.875 23.507812 46.847656 23.320312 C 46.832031 23.21875 46.863281 23.125 46.921875 23.050781 L 45.839844 22.042969 C 45.8125 22.0625 45.777344 22.078125 45.742188 22.082031 C 45.710938 22.089844 45.679688 22.085938 45.652344 22.078125 L 45.191406 22.835938 C 45.25 22.878906 45.289062 22.945312 45.289062 23.019531 C 45.289062 23.03125 45.289062 23.042969 45.289062 23.050781 L 45.832031 23.191406 C 45.855469 23.144531 45.90625 23.113281 45.964844 23.113281 C 46.042969 23.113281 46.109375 23.175781 46.109375 23.253906 C 46.109375 23.328125 46.042969 23.390625 45.964844 23.390625 C 45.882812 23.390625 45.816406 23.328125 45.816406 23.253906 C 45.816406 23.25 45.816406 23.246094 45.816406 23.246094 L 45.273438 23.109375 C 45.238281 23.191406 45.148438 23.253906 45.050781 23.253906 C 44.917969 23.253906 44.808594 23.148438 44.808594 23.023438 C 44.808594 22.894531 44.917969 22.792969 45.050781 22.792969 C 45.082031 22.792969 45.113281 22.800781 45.144531 22.8125 L 45.601562 22.0625 C 45.546875 22.03125 45.507812 21.980469 45.5 21.917969 C 45.484375 21.8125 45.546875 21.71875 45.648438 21.6875 L 45.460938 20.445312 C 45.328125 20.449219 45.207031 20.355469 45.183594 20.226562 C 45.160156 20.082031 45.265625 19.949219 45.414062 19.929688 Z M 50.839844 23.734375 C 50.789062 23.734375 50.746094 23.773438 50.746094 23.824219 C 50.746094 23.875 50.789062 23.914062 50.839844 23.914062 C 50.894531 23.914062 50.933594 23.875 50.933594 23.824219 C 50.933594 23.777344 50.894531 23.734375 50.839844 23.734375 Z M 50.679688 16.792969 C 50.605469 16.792969 50.546875 16.847656 50.546875 16.917969 C 50.546875 16.988281 50.605469 17.042969 50.679688 17.042969 C 50.75 17.042969 50.808594 16.988281 50.808594 16.917969 C 50.808594 16.851562 50.75 16.792969 50.679688 16.792969 Z M 53.015625 19.332031 C 53.136719 19.332031 53.230469 19.425781 53.230469 19.539062 C 53.230469 19.65625 53.136719 19.746094 53.015625 19.746094 C 52.894531 19.746094 52.796875 19.65625 52.796875 19.539062 C 52.796875 19.429688 52.894531 19.332031 53.015625 19.332031 Z M 44.585938 19.640625 C 44.457031 19.640625 44.351562 19.742188 44.351562 19.863281 C 44.351562 19.984375 44.457031 20.085938 44.585938 20.085938 C 44.710938 20.085938 44.816406 19.984375 44.816406 19.863281 C 44.816406 19.738281 44.710938 19.640625 44.585938 19.640625 Z M 46.6875 16.363281 C 46.570312 16.363281 46.472656 16.457031 46.472656 16.570312 C 46.472656 16.683594 46.570312 16.777344 46.6875 16.777344 C 46.808594 16.777344 46.90625 16.683594 46.90625 16.570312 C 46.90625 16.457031 46.808594 16.363281 46.6875 16.363281 Z M 45.257812 17.640625 C 45.167969 17.640625 45.089844 17.710938 45.089844 17.800781 C 45.089844 17.886719 45.167969 17.960938 45.257812 17.960938 C 45.351562 17.960938 45.425781 17.886719 45.425781 17.800781 C 45.425781 17.710938 45.351562 17.640625 45.257812 17.640625 Z M 52.796875 21.730469 C 52.851562 21.730469 52.894531 21.769531 52.894531 21.820312 C 52.894531 21.867188 52.851562 21.910156 52.796875 21.910156 C 52.746094 21.910156 52.703125 21.867188 52.703125 21.820312 C 52.703125 21.769531 52.746094 21.730469 52.796875 21.730469 Z M 45.855469 21.699219 L 45.878906 21.710938 L 45.863281 21.738281 C 45.878906 21.753906 45.890625 21.769531 45.902344 21.792969 L 47.082031 21.414062 C 47.074219 21.394531 47.074219 21.378906 47.070312 21.363281 C 47.054688 21.265625 47.070312 21.175781 47.109375 21.089844 L 46.421875 20.742188 Z M 49.929688 23.71875 C 49.878906 23.699219 49.832031 23.667969 49.800781 23.632812 L 48.785156 24.222656 C 48.828125 24.261719 48.855469 24.3125 48.863281 24.371094 L 49.691406 24.371094 C 49.703125 24.277344 49.835938 24.203125 49.894531 24.203125 C 49.949219 24.203125 49.917969 24.203125 49.925781 24.207031 Z M 49.765625 23.589844 C 49.753906 23.574219 49.746094 23.558594 49.738281 23.539062 L 48.9375 23.472656 L 48.9375 23.476562 C 48.957031 23.605469 48.863281 23.730469 48.726562 23.75 C 48.585938 23.769531 48.453125 23.628906 48.4375 23.546875 C 48.425781 23.464844 48.4375 23.480469 48.445312 23.449219 L 47.519531 23.425781 C 47.503906 23.453125 47.484375 23.480469 47.460938 23.507812 L 48.480469 24.1875 C 48.515625 24.167969 48.558594 24.15625 48.605469 24.15625 C 48.652344 24.15625 48.695312 24.167969 48.734375 24.191406 Z M 47.421875 23.539062 C 47.390625 23.5625 47.351562 23.578125 47.316406 23.59375 L 47.503906 24.167969 C 47.519531 24.167969 47.492188 24.164062 47.554688 24.164062 C 47.613281 24.164062 47.742188 24.238281 47.753906 24.332031 L 48.359375 24.367188 C 48.367188 24.308594 48.394531 24.253906 48.4375 24.214844 Z M 47.46875 17.546875 C 47.476562 17.59375 47.46875 17.640625 47.453125 17.683594 L 48.503906 18.238281 C 48.554688 18.132812 48.660156 18.054688 48.789062 18.035156 C 48.808594 18.03125 48.828125 18.027344 48.847656 18.027344 L 48.964844 17.515625 C 48.851562 17.484375 48.765625 17.390625 48.746094 17.273438 C 48.742188 17.257812 48.742188 17.242188 48.742188 17.230469 Z M 47.421875 17.730469 C 47.382812 17.785156 47.320312 17.828125 47.242188 17.839844 C 47.160156 17.851562 47.078125 17.824219 47.019531 17.773438 L 46.226562 18.4375 C 46.253906 18.472656 46.273438 18.515625 46.28125 18.558594 C 46.289062 18.609375 46.28125 18.660156 46.261719 18.703125 L 46.980469 19.117188 C 47.03125 19.050781 47.105469 19.003906 47.191406 18.992188 C 47.292969 18.976562 47.386719 19.007812 47.453125 19.066406 L 48.496094 18.535156 C 48.484375 18.507812 48.476562 18.480469 48.46875 18.445312 C 48.460938 18.390625 48.464844 18.339844 48.480469 18.289062 Z M 46.230469 18.753906 C 46.1875 18.804688 46.128906 18.839844 46.054688 18.851562 C 46.027344 18.859375 46 18.859375 45.972656 18.851562 L 45.570312 19.953125 C 45.648438 19.988281 45.703125 20.058594 45.71875 20.148438 C 45.726562 20.203125 45.714844 20.261719 45.6875 20.308594 L 46.398438 20.667969 L 47.058594 19.554688 C 46.988281 19.503906 46.9375 19.433594 46.921875 19.34375 C 46.910156 19.28125 46.921875 19.21875 46.949219 19.164062 Z M 45.65625 20.355469 C 45.621094 20.390625 45.574219 20.421875 45.519531 20.433594 L 45.707031 21.679688 C 45.734375 21.679688 45.761719 21.683594 45.785156 21.695312 L 46.367188 20.71875 Z M 45.917969 21.847656 C 45.917969 21.847656 45.917969 21.851562 45.917969 21.855469 C 45.925781 21.910156 45.910156 21.964844 45.878906 22.003906 L 46.964844 23.011719 C 47.015625 22.96875 47.078125 22.941406 47.148438 22.929688 C 47.15625 22.929688 47.167969 22.929688 47.175781 22.929688 L 47.429688 21.75 C 47.28125 21.714844 47.160156 21.609375 47.097656 21.46875 Z M 47.238281 22.929688 C 47.363281 22.9375 47.472656 23.011719 47.527344 23.121094 L 48.917969 22.054688 C 48.902344 22.027344 48.886719 21.996094 48.882812 21.960938 C 48.878906 21.929688 48.878906 21.902344 48.886719 21.875 L 47.957031 21.582031 C 47.878906 21.675781 47.765625 21.742188 47.636719 21.761719 C 47.585938 21.769531 47.539062 21.769531 47.492188 21.761719 Z M 47.546875 23.175781 C 47.550781 23.191406 47.554688 23.203125 47.554688 23.21875 C 47.5625 23.269531 47.558594 23.324219 47.542969 23.371094 L 48.46875 23.390625 C 48.503906 23.328125 48.597656 23.277344 48.648438 23.269531 C 48.703125 23.261719 48.699219 23.265625 48.722656 23.269531 L 49.039062 22.152344 C 49.003906 22.140625 48.976562 22.121094 48.949219 22.097656 Z M 48.78125 23.289062 C 48.847656 23.3125 48.894531 23.359375 48.921875 23.417969 L 49.722656 23.480469 C 49.722656 23.480469 49.71875 23.476562 49.71875 23.472656 C 49.703125 23.367188 49.742188 23.265625 49.816406 23.199219 L 49.234375 22.15625 C 49.214844 22.164062 49.199219 22.167969 49.175781 22.171875 C 49.152344 22.175781 49.125 22.171875 49.097656 22.171875 Z M 49.863281 23.160156 C 49.902344 23.136719 49.949219 23.117188 50 23.109375 C 50.113281 23.09375 50.222656 23.136719 50.292969 23.210938 L 51.394531 22.414062 C 51.367188 22.371094 51.34375 22.324219 51.332031 22.277344 L 49.390625 21.988281 C 49.375 22.046875 49.335938 22.09375 49.285156 22.128906 Z M 51.324219 22.214844 C 51.3125 22.109375 51.34375 22.011719 51.398438 21.929688 L 50.734375 21.449219 L 49.394531 21.871094 C 49.394531 21.875 49.398438 21.882812 49.398438 21.882812 C 49.398438 21.898438 49.398438 21.914062 49.398438 21.929688 Z M 51.433594 21.886719 C 51.5 21.8125 51.597656 21.757812 51.707031 21.742188 C 51.773438 21.730469 51.84375 21.734375 51.90625 21.753906 L 52.09375 21.273438 C 51.988281 21.257812 51.898438 21.1875 51.855469 21.09375 L 50.804688 21.425781 Z M 51.835938 21.042969 C 51.832031 21.035156 51.832031 21.027344 51.832031 21.023438 C 51.804688 20.855469 51.925781 20.699219 52.097656 20.675781 C 52.136719 20.667969 52.175781 20.667969 52.210938 20.675781 L 52.097656 19.738281 C 51.984375 19.742188 51.878906 19.683594 51.820312 19.597656 L 49.964844 20.507812 C 49.980469 20.535156 49.988281 20.5625 49.992188 20.59375 C 50.003906 20.667969 49.988281 20.742188 49.949219 20.800781 L 50.75 21.386719 Z M 51.792969 19.546875 C 51.785156 19.523438 51.777344 19.5 51.773438 19.476562 C 51.757812 19.355469 51.816406 19.242188 51.917969 19.179688 L 51.46875 18.375 C 51.441406 18.390625 51.40625 18.398438 51.375 18.402344 C 51.253906 18.417969 51.140625 18.382812 51.058594 18.304688 L 50.351562 18.828125 L 51.066406 19.046875 C 51.089844 19.003906 51.132812 18.972656 51.1875 18.964844 C 51.277344 18.953125 51.367188 19.011719 51.378906 19.101562 C 51.390625 19.1875 51.328125 19.269531 51.238281 19.28125 C 51.191406 19.289062 51.152344 19.277344 51.117188 19.257812 L 49.917969 20.4375 C 49.925781 20.445312 49.929688 20.453125 49.933594 20.460938 Z M 51.074219 19.21875 C 51.074219 19.214844 51.070312 19.210938 51.066406 19.207031 L 48.773438 20.058594 C 48.773438 20.0625 48.773438 20.066406 48.773438 20.074219 C 48.792969 20.191406 48.710938 20.292969 48.59375 20.3125 C 48.539062 20.320312 48.488281 20.308594 48.445312 20.285156 L 47.894531 20.9375 C 47.941406 20.980469 47.980469 21.027344 48.007812 21.085938 L 49.351562 20.695312 C 49.351562 20.691406 49.351562 20.6875 49.351562 20.683594 C 49.324219 20.511719 49.445312 20.355469 49.621094 20.328125 C 49.714844 20.316406 49.804688 20.34375 49.871094 20.394531 Z M 51.046875 19.15625 C 51.046875 19.152344 51.046875 19.152344 51.046875 19.148438 C 51.042969 19.132812 51.042969 19.117188 51.046875 19.101562 L 50.292969 18.871094 L 48.75 20.003906 Z M 48.402344 20.25 C 48.375 20.21875 48.351562 20.183594 48.34375 20.136719 C 48.328125 20.023438 48.410156 19.917969 48.527344 19.898438 C 48.539062 19.898438 48.546875 19.898438 48.558594 19.898438 L 48.71875 18.734375 C 48.640625 18.707031 48.570312 18.65625 48.523438 18.589844 L 47.496094 19.109375 C 47.527344 19.152344 47.550781 19.199219 47.558594 19.253906 C 47.585938 19.421875 47.464844 19.582031 47.289062 19.605469 C 47.277344 19.609375 47.265625 19.609375 47.253906 19.609375 L 47.496094 20.820312 C 47.625 20.804688 47.75 20.835938 47.847656 20.90625 Z M 47.195312 19.605469 C 47.164062 19.601562 47.136719 19.59375 47.105469 19.582031 L 46.445312 20.691406 L 47.132812 21.042969 C 47.199219 20.9375 47.304688 20.859375 47.4375 20.828125 Z M 47.988281 21.53125 L 48.902344 21.820312 C 48.9375 21.746094 49.007812 21.6875 49.097656 21.675781 C 49.132812 21.671875 49.164062 21.671875 49.195312 21.679688 L 49.484375 20.890625 C 49.433594 20.855469 49.394531 20.808594 49.371094 20.753906 L 48.03125 21.140625 C 48.042969 21.164062 48.046875 21.191406 48.050781 21.222656 C 48.070312 21.332031 48.046875 21.441406 47.988281 21.53125 Z M 49.535156 20.917969 L 49.25 21.699219 C 49.304688 21.722656 49.347656 21.765625 49.375 21.820312 L 50.675781 21.410156 L 49.90625 20.847656 C 49.859375 20.898438 49.789062 20.933594 49.714844 20.945312 C 49.65625 20.953125 49.59375 20.941406 49.535156 20.917969 Z M 50.953125 17.9375 L 49.351562 17.347656 C 49.308594 17.441406 49.21875 17.511719 49.105469 17.53125 C 49.074219 17.535156 49.046875 17.535156 49.019531 17.53125 L 48.910156 18.035156 C 49.066406 18.0625 49.195312 18.179688 49.21875 18.339844 C 49.226562 18.390625 49.222656 18.4375 49.214844 18.480469 L 50.277344 18.808594 L 51.015625 18.265625 C 50.976562 18.21875 50.949219 18.160156 50.941406 18.097656 C 50.933594 18.042969 50.9375 17.988281 50.953125 17.9375 Z M 48.777344 18.75 L 48.617188 19.902344 C 48.65625 19.914062 48.6875 19.929688 48.714844 19.957031 L 50.222656 18.847656 L 49.195312 18.527344 C 49.144531 18.644531 49.039062 18.730469 48.902344 18.75 C 48.859375 18.757812 48.816406 18.757812 48.777344 18.75 Z M 48.777344 18.75 " clip-rule="evenodd"/></clipPath><linearGradient x1="344.645066" gradientTransform="matrix(0.026109, 0, 0, 0.0249803, 44.352497, 16.168093)" y1="334.593379" x2="-0.986026" gradientUnits="userSpaceOnUse" y2="0.821031" id="e84a501ba8"><stop stop-opacity="1" stop-color="rgb(0%, 72.198486%, 70.999146%)" offset="0"/><stop stop-opacity="1" stop-color="rgb(0%, 72.198486%, 70.999146%)" offset="0.0625"/><stop stop-opacity="1" stop-color="rgb(0%, 72.198486%, 70.999146%)" offset="0.09375"/><stop stop-opacity="1" stop-color="rgb(0%, 72.198486%, 70.999146%)" offset="0.109375"/><stop stop-opacity="1" stop-color="rgb(0.0442505%, 72.201538%, 70.96405%)" offset="0.117187"/><stop stop-opacity="1" stop-color="rgb(0.692749%, 72.25647%, 70.480347%)" offset="0.121094"/><stop stop-opacity="1" stop-color="rgb(1.296997%, 72.306824%, 70.030212%)" offset="0.125"/><stop stop-opacity="1" stop-color="rgb(1.899719%, 72.357178%, 69.578552%)" offset="0.128906"/><stop stop-opacity="1" stop-color="rgb(2.503967%, 72.407532%, 69.128418%)" offset="0.132812"/><stop stop-opacity="1" stop-color="rgb(3.106689%, 72.45636%, 68.678284%)" offset="0.136719"/><stop stop-opacity="1" stop-color="rgb(3.710938%, 72.506714%, 68.228149%)" offset="0.140625"/><stop stop-opacity="1" stop-color="rgb(4.31366%, 72.557068%, 67.778015%)" offset="0.144531"/><stop stop-opacity="1" stop-color="rgb(4.917908%, 72.607422%, 67.327881%)" offset="0.148438"/><stop stop-opacity="1" stop-color="rgb(5.52063%, 72.65625%, 66.876221%)" offset="0.152344"/><stop stop-opacity="1" stop-color="rgb(6.124878%, 72.706604%, 66.426086%)" offset="0.15625"/><stop stop-opacity="1" stop-color="rgb(6.7276%, 72.756958%, 65.975952%)" offset="0.160156"/><stop stop-opacity="1" stop-color="rgb(7.331848%, 72.807312%, 65.525818%)" offset="0.164062"/><stop stop-opacity="1" stop-color="rgb(7.93457%, 72.857666%, 65.074158%)" offset="0.167969"/><stop stop-opacity="1" stop-color="rgb(8.538818%, 72.90802%, 64.624023%)" offset="0.171875"/><stop stop-opacity="1" stop-color="rgb(9.141541%, 72.956848%, 64.173889%)" offset="0.175781"/><stop stop-opacity="1" stop-color="rgb(9.744263%, 73.007202%, 63.723755%)" offset="0.179688"/><stop stop-opacity="1" stop-color="rgb(10.346985%, 73.057556%, 63.273621%)" offset="0.183594"/><stop stop-opacity="1" stop-color="rgb(10.951233%, 73.10791%, 62.823486%)" offset="0.1875"/><stop stop-opacity="1" stop-color="rgb(11.553955%, 73.156738%, 62.371826%)" offset="0.191406"/><stop stop-opacity="1" stop-color="rgb(12.158203%, 73.207092%, 61.921692%)" offset="0.195312"/><stop stop-opacity="1" stop-color="rgb(12.760925%, 73.257446%, 61.471558%)" offset="0.199219"/><stop stop-opacity="1" stop-color="rgb(13.365173%, 73.3078%, 61.021423%)" offset="0.203125"/><stop stop-opacity="1" stop-color="rgb(13.967896%, 73.358154%, 60.569763%)" offset="0.207031"/><stop stop-opacity="1" stop-color="rgb(14.572144%, 73.408508%, 60.119629%)" offset="0.210937"/><stop stop-opacity="1" stop-color="rgb(15.174866%, 73.457336%, 59.669495%)" offset="0.214844"/><stop stop-opacity="1" stop-color="rgb(15.779114%, 73.50769%, 59.21936%)" offset="0.21875"/><stop stop-opacity="1" stop-color="rgb(16.381836%, 73.558044%, 58.7677%)" offset="0.222656"/><stop stop-opacity="1" stop-color="rgb(16.986084%, 73.608398%, 58.317566%)" offset="0.226562"/><stop stop-opacity="1" stop-color="rgb(17.588806%, 73.657227%, 57.867432%)" offset="0.230469"/><stop stop-opacity="1" stop-color="rgb(18.191528%, 73.707581%, 57.417297%)" offset="0.234375"/><stop stop-opacity="1" stop-color="rgb(18.79425%, 73.757935%, 56.967163%)" offset="0.238281"/><stop stop-opacity="1" stop-color="rgb(19.398499%, 73.808289%, 56.517029%)" offset="0.242187"/><stop stop-opacity="1" stop-color="rgb(20.001221%, 73.858643%, 56.065369%)" offset="0.246094"/><stop stop-opacity="1" stop-color="rgb(20.605469%, 73.908997%, 55.615234%)" offset="0.25"/><stop stop-opacity="1" stop-color="rgb(21.208191%, 73.957825%, 55.1651%)" offset="0.253906"/><stop stop-opacity="1" stop-color="rgb(21.812439%, 74.008179%, 54.714966%)" offset="0.257812"/><stop stop-opacity="1" stop-color="rgb(22.415161%, 74.058533%, 54.263306%)" offset="0.261719"/><stop stop-opacity="1" stop-color="rgb(23.019409%, 74.108887%, 53.813171%)" offset="0.265625"/><stop stop-opacity="1" stop-color="rgb(23.622131%, 74.159241%, 53.363037%)" offset="0.269531"/><stop stop-opacity="1" stop-color="rgb(24.226379%, 74.209595%, 52.912903%)" offset="0.273438"/><stop stop-opacity="1" stop-color="rgb(24.829102%, 74.258423%, 52.462769%)" offset="0.277344"/><stop stop-opacity="1" stop-color="rgb(25.43335%, 74.308777%, 52.012634%)" offset="0.28125"/><stop stop-opacity="1" stop-color="rgb(26.036072%, 74.359131%, 51.560974%)" offset="0.285156"/><stop stop-opacity="1" stop-color="rgb(26.64032%, 74.409485%, 51.11084%)" offset="0.289062"/><stop stop-opacity="1" stop-color="rgb(27.243042%, 74.458313%, 50.660706%)" offset="0.292969"/><stop stop-opacity="1" stop-color="rgb(27.845764%, 74.508667%, 50.210571%)" offset="0.296875"/><stop stop-opacity="1" stop-color="rgb(28.448486%, 74.559021%, 49.758911%)" offset="0.300781"/><stop stop-opacity="1" stop-color="rgb(29.052734%, 74.609375%, 49.308777%)" offset="0.304687"/><stop stop-opacity="1" stop-color="rgb(29.655457%, 74.659729%, 48.858643%)" offset="0.308594"/><stop stop-opacity="1" stop-color="rgb(30.259705%, 74.710083%, 48.408508%)" offset="0.3125"/><stop stop-opacity="1" stop-color="rgb(30.862427%, 74.758911%, 47.956848%)" offset="0.316406"/><stop stop-opacity="1" stop-color="rgb(31.466675%, 74.809265%, 47.506714%)" offset="0.320312"/><stop stop-opacity="1" stop-color="rgb(32.069397%, 74.859619%, 47.05658%)" offset="0.324219"/><stop stop-opacity="1" stop-color="rgb(32.673645%, 74.909973%, 46.606445%)" offset="0.328125"/><stop stop-opacity="1" stop-color="rgb(33.276367%, 74.958801%, 46.156311%)" offset="0.332031"/><stop stop-opacity="1" stop-color="rgb(33.880615%, 75.009155%, 45.706177%)" offset="0.335937"/><stop stop-opacity="1" stop-color="rgb(34.483337%, 75.059509%, 45.254517%)" offset="0.339844"/><stop stop-opacity="1" stop-color="rgb(35.087585%, 75.109863%, 44.804382%)" offset="0.34375"/><stop stop-opacity="1" stop-color="rgb(35.690308%, 75.160217%, 44.354248%)" offset="0.347656"/><stop stop-opacity="1" stop-color="rgb(36.294556%, 75.210571%, 43.904114%)" offset="0.351562"/><stop stop-opacity="1" stop-color="rgb(36.897278%, 75.259399%, 43.452454%)" offset="0.355469"/><stop stop-opacity="1" stop-color="rgb(37.5%, 75.309753%, 43.002319%)" offset="0.359375"/><stop stop-opacity="1" stop-color="rgb(38.102722%, 75.360107%, 42.552185%)" offset="0.363281"/><stop stop-opacity="1" stop-color="rgb(38.70697%, 75.410461%, 42.102051%)" offset="0.367187"/><stop stop-opacity="1" stop-color="rgb(39.309692%, 75.45929%, 41.650391%)" offset="0.371094"/><stop stop-opacity="1" stop-color="rgb(39.91394%, 75.509644%, 41.200256%)" offset="0.375"/><stop stop-opacity="1" stop-color="rgb(40.516663%, 75.559998%, 40.750122%)" offset="0.378906"/><stop stop-opacity="1" stop-color="rgb(41.120911%, 75.610352%, 40.299988%)" offset="0.382812"/><stop stop-opacity="1" stop-color="rgb(41.723633%, 75.660706%, 39.849854%)" offset="0.386719"/><stop stop-opacity="1" stop-color="rgb(42.327881%, 75.71106%, 39.399719%)" offset="0.390625"/><stop stop-opacity="1" stop-color="rgb(42.930603%, 75.759888%, 38.948059%)" offset="0.394531"/><stop stop-opacity="1" stop-color="rgb(43.534851%, 75.810242%, 38.497925%)" offset="0.398437"/><stop stop-opacity="1" stop-color="rgb(44.137573%, 75.860596%, 38.047791%)" offset="0.402344"/><stop stop-opacity="1" stop-color="rgb(44.741821%, 75.91095%, 37.597656%)" offset="0.40625"/><stop stop-opacity="1" stop-color="rgb(45.344543%, 75.959778%, 37.145996%)" offset="0.410156"/><stop stop-opacity="1" stop-color="rgb(45.948792%, 76.010132%, 36.695862%)" offset="0.414062"/><stop stop-opacity="1" stop-color="rgb(46.551514%, 76.060486%, 36.245728%)" offset="0.417969"/><stop stop-opacity="1" stop-color="rgb(47.154236%, 76.11084%, 35.795593%)" offset="0.421875"/><stop stop-opacity="1" stop-color="rgb(47.756958%, 76.161194%, 35.345459%)" offset="0.425781"/><stop stop-opacity="1" stop-color="rgb(48.361206%, 76.211548%, 34.895325%)" offset="0.429687"/><stop stop-opacity="1" stop-color="rgb(48.963928%, 76.260376%, 34.443665%)" offset="0.433594"/><stop stop-opacity="1" stop-color="rgb(49.568176%, 76.31073%, 33.99353%)" offset="0.4375"/><stop stop-opacity="1" stop-color="rgb(50.170898%, 76.361084%, 33.543396%)" offset="0.441406"/><stop stop-opacity="1" stop-color="rgb(50.775146%, 76.411438%, 33.093262%)" offset="0.445312"/><stop stop-opacity="1" stop-color="rgb(51.377869%, 76.460266%, 32.641602%)" offset="0.449219"/><stop stop-opacity="1" stop-color="rgb(51.982117%, 76.51062%, 32.191467%)" offset="0.453125"/><stop stop-opacity="1" stop-color="rgb(52.584839%, 76.560974%, 31.741333%)" offset="0.457031"/><stop stop-opacity="1" stop-color="rgb(53.189087%, 76.611328%, 31.291199%)" offset="0.460937"/><stop stop-opacity="1" stop-color="rgb(53.791809%, 76.661682%, 30.839539%)" offset="0.464844"/><stop stop-opacity="1" stop-color="rgb(54.396057%, 76.712036%, 30.389404%)" offset="0.46875"/><stop stop-opacity="1" stop-color="rgb(54.998779%, 76.760864%, 29.93927%)" offset="0.472656"/><stop stop-opacity="1" stop-color="rgb(55.603027%, 76.811218%, 29.489136%)" offset="0.476562"/><stop stop-opacity="1" stop-color="rgb(56.20575%, 76.861572%, 29.039001%)" offset="0.480469"/><stop stop-opacity="1" stop-color="rgb(56.808472%, 76.911926%, 28.588867%)" offset="0.484375"/><stop stop-opacity="1" stop-color="rgb(57.411194%, 76.960754%, 28.137207%)" offset="0.488281"/><stop stop-opacity="1" stop-color="rgb(58.015442%, 77.011108%, 27.687073%)" offset="0.492187"/><stop stop-opacity="1" stop-color="rgb(58.618164%, 77.061462%, 27.236938%)" offset="0.496094"/><stop stop-opacity="1" stop-color="rgb(59.222412%, 77.111816%, 26.786804%)" offset="0.5"/><stop stop-opacity="1" stop-color="rgb(59.825134%, 77.16217%, 26.335144%)" offset="0.503906"/><stop stop-opacity="1" stop-color="rgb(60.429382%, 77.212524%, 25.88501%)" offset="0.507812"/><stop stop-opacity="1" stop-color="rgb(61.032104%, 77.261353%, 25.434875%)" offset="0.511719"/><stop stop-opacity="1" stop-color="rgb(61.636353%, 77.311707%, 24.984741%)" offset="0.515625"/><stop stop-opacity="1" stop-color="rgb(62.239075%, 77.362061%, 24.533081%)" offset="0.519531"/><stop stop-opacity="1" stop-color="rgb(62.843323%, 77.412415%, 24.082947%)" offset="0.523437"/><stop stop-opacity="1" stop-color="rgb(63.446045%, 77.461243%, 23.632812%)" offset="0.527344"/><stop stop-opacity="1" stop-color="rgb(64.050293%, 77.511597%, 23.182678%)" offset="0.53125"/><stop stop-opacity="1" stop-color="rgb(64.620972%, 77.577209%, 22.756958%)" offset="0.535156"/><stop stop-opacity="1" stop-color="rgb(65.19165%, 77.642822%, 22.332764%)" offset="0.539062"/><stop stop-opacity="1" stop-color="rgb(65.54718%, 77.807617%, 22.079468%)" offset="0.542969"/><stop stop-opacity="1" stop-color="rgb(65.90271%, 77.972412%, 21.826172%)" offset="0.546875"/><stop stop-opacity="1" stop-color="rgb(66.25824%, 78.137207%, 21.57135%)" offset="0.550781"/><stop stop-opacity="1" stop-color="rgb(66.615295%, 78.303528%, 21.318054%)" offset="0.554688"/><stop stop-opacity="1" stop-color="rgb(66.970825%, 78.468323%, 21.063232%)" offset="0.558594"/><stop stop-opacity="1" stop-color="rgb(67.326355%, 78.634644%, 20.809937%)" offset="0.5625"/><stop stop-opacity="1" stop-color="rgb(67.681885%, 78.799438%, 20.556641%)" offset="0.566406"/><stop stop-opacity="1" stop-color="rgb(68.037415%, 78.965759%, 20.303345%)" offset="0.570312"/><stop stop-opacity="1" stop-color="rgb(68.392944%, 79.130554%, 20.048523%)" offset="0.574219"/><stop stop-opacity="1" stop-color="rgb(68.748474%, 79.296875%, 19.795227%)" offset="0.578125"/><stop stop-opacity="1" stop-color="rgb(69.104004%, 79.46167%, 19.541931%)" offset="0.582031"/><stop stop-opacity="1" stop-color="rgb(69.46106%, 79.626465%, 19.288635%)" offset="0.585938"/><stop stop-opacity="1" stop-color="rgb(69.816589%, 79.79126%, 19.033813%)" offset="0.589844"/><stop stop-opacity="1" stop-color="rgb(70.172119%, 79.957581%, 18.780518%)" offset="0.59375"/><stop stop-opacity="1" stop-color="rgb(70.527649%, 80.122375%, 18.525696%)" offset="0.597656"/><stop stop-opacity="1" stop-color="rgb(70.883179%, 80.288696%, 18.2724%)" offset="0.601562"/><stop stop-opacity="1" stop-color="rgb(71.238708%, 80.453491%, 18.019104%)" offset="0.605469"/><stop stop-opacity="1" stop-color="rgb(71.594238%, 80.619812%, 17.765808%)" offset="0.609375"/><stop stop-opacity="1" stop-color="rgb(71.949768%, 80.784607%, 17.510986%)" offset="0.613281"/><stop stop-opacity="1" stop-color="rgb(72.306824%, 80.950928%, 17.25769%)" offset="0.617188"/><stop stop-opacity="1" stop-color="rgb(72.662354%, 81.115723%, 17.004395%)" offset="0.621094"/><stop stop-opacity="1" stop-color="rgb(73.017883%, 81.280518%, 16.751099%)" offset="0.625"/><stop stop-opacity="1" stop-color="rgb(73.373413%, 81.445312%, 16.496277%)" offset="0.628906"/><stop stop-opacity="1" stop-color="rgb(73.728943%, 81.611633%, 16.242981%)" offset="0.632812"/><stop stop-opacity="1" stop-color="rgb(74.084473%, 81.776428%, 15.988159%)" offset="0.636719"/><stop stop-opacity="1" stop-color="rgb(74.440002%, 81.942749%, 15.734863%)" offset="0.640625"/><stop stop-opacity="1" stop-color="rgb(74.795532%, 82.107544%, 15.481567%)" offset="0.644531"/><stop stop-opacity="1" stop-color="rgb(75.151062%, 82.273865%, 15.228271%)" offset="0.648438"/><stop stop-opacity="1" stop-color="rgb(75.506592%, 82.43866%, 14.97345%)" offset="0.652344"/><stop stop-opacity="1" stop-color="rgb(75.863647%, 82.603455%, 14.720154%)" offset="0.65625"/><stop stop-opacity="1" stop-color="rgb(76.219177%, 82.76825%, 14.466858%)" offset="0.660156"/><stop stop-opacity="1" stop-color="rgb(76.574707%, 82.93457%, 14.213562%)" offset="0.664062"/><stop stop-opacity="1" stop-color="rgb(76.930237%, 83.099365%, 13.95874%)" offset="0.667969"/><stop stop-opacity="1" stop-color="rgb(77.285767%, 83.265686%, 13.705444%)" offset="0.671875"/><stop stop-opacity="1" stop-color="rgb(77.641296%, 83.430481%, 13.450623%)" offset="0.675781"/><stop stop-opacity="1" stop-color="rgb(77.996826%, 83.596802%, 13.197327%)" offset="0.679688"/><stop stop-opacity="1" stop-color="rgb(78.352356%, 83.761597%, 12.944031%)" offset="0.683594"/><stop stop-opacity="1" stop-color="rgb(78.709412%, 83.927917%, 12.690735%)" offset="0.6875"/><stop stop-opacity="1" stop-color="rgb(79.064941%, 84.092712%, 12.435913%)" offset="0.691406"/><stop stop-opacity="1" stop-color="rgb(79.420471%, 84.257507%, 12.182617%)" offset="0.695312"/><stop stop-opacity="1" stop-color="rgb(79.776001%, 84.422302%, 11.929321%)" offset="0.699219"/><stop stop-opacity="1" stop-color="rgb(80.131531%, 84.588623%, 11.676025%)" offset="0.703125"/><stop stop-opacity="1" stop-color="rgb(80.487061%, 84.753418%, 11.421204%)" offset="0.707031"/><stop stop-opacity="1" stop-color="rgb(80.84259%, 84.919739%, 11.167908%)" offset="0.710938"/><stop stop-opacity="1" stop-color="rgb(81.19812%, 85.084534%, 10.913086%)" offset="0.714844"/><stop stop-opacity="1" stop-color="rgb(81.555176%, 85.250854%, 10.65979%)" offset="0.71875"/><stop stop-opacity="1" stop-color="rgb(81.910706%, 85.415649%, 10.406494%)" offset="0.722656"/><stop stop-opacity="1" stop-color="rgb(82.266235%, 85.58197%, 10.153198%)" offset="0.726562"/><stop stop-opacity="1" stop-color="rgb(82.621765%, 85.746765%, 9.898376%)" offset="0.730469"/><stop stop-opacity="1" stop-color="rgb(82.977295%, 85.91156%, 9.645081%)" offset="0.734375"/><stop stop-opacity="1" stop-color="rgb(83.332825%, 86.076355%, 9.391785%)" offset="0.738281"/><stop stop-opacity="1" stop-color="rgb(83.688354%, 86.242676%, 9.138489%)" offset="0.742187"/><stop stop-opacity="1" stop-color="rgb(84.043884%, 86.407471%, 8.883667%)" offset="0.746094"/><stop stop-opacity="1" stop-color="rgb(84.40094%, 86.573792%, 8.630371%)" offset="0.75"/><stop stop-opacity="1" stop-color="rgb(84.75647%, 86.738586%, 8.375549%)" offset="0.753906"/><stop stop-opacity="1" stop-color="rgb(85.112%, 86.904907%, 8.122253%)" offset="0.757812"/><stop stop-opacity="1" stop-color="rgb(85.467529%, 87.069702%, 7.868958%)" offset="0.761719"/><stop stop-opacity="1" stop-color="rgb(85.823059%, 87.234497%, 7.615662%)" offset="0.765625"/><stop stop-opacity="1" stop-color="rgb(86.178589%, 87.399292%, 7.36084%)" offset="0.769531"/><stop stop-opacity="1" stop-color="rgb(86.534119%, 87.565613%, 7.107544%)" offset="0.773438"/><stop stop-opacity="1" stop-color="rgb(86.889648%, 87.730408%, 6.854248%)" offset="0.777344"/><stop stop-opacity="1" stop-color="rgb(87.245178%, 87.896729%, 6.600952%)" offset="0.78125"/><stop stop-opacity="1" stop-color="rgb(87.600708%, 88.061523%, 6.34613%)" offset="0.785156"/><stop stop-opacity="1" stop-color="rgb(87.957764%, 88.227844%, 6.092834%)" offset="0.789062"/><stop stop-opacity="1" stop-color="rgb(88.313293%, 88.392639%, 5.838013%)" offset="0.792969"/><stop stop-opacity="1" stop-color="rgb(88.668823%, 88.55896%, 5.584717%)" offset="0.796875"/><stop stop-opacity="1" stop-color="rgb(89.024353%, 88.723755%, 5.331421%)" offset="0.800781"/><stop stop-opacity="1" stop-color="rgb(89.379883%, 88.88855%, 5.078125%)" offset="0.804688"/><stop stop-opacity="1" stop-color="rgb(89.735413%, 89.053345%, 4.823303%)" offset="0.808594"/><stop stop-opacity="1" stop-color="rgb(90.090942%, 89.219666%, 4.570007%)" offset="0.8125"/><stop stop-opacity="1" stop-color="rgb(90.446472%, 89.38446%, 4.316711%)" offset="0.816406"/><stop stop-opacity="1" stop-color="rgb(90.803528%, 89.550781%, 4.063416%)" offset="0.820312"/><stop stop-opacity="1" stop-color="rgb(91.159058%, 89.715576%, 3.808594%)" offset="0.824219"/><stop stop-opacity="1" stop-color="rgb(91.514587%, 89.881897%, 3.555298%)" offset="0.828125"/><stop stop-opacity="1" stop-color="rgb(91.870117%, 90.046692%, 3.300476%)" offset="0.832031"/><stop stop-opacity="1" stop-color="rgb(92.225647%, 90.211487%, 3.04718%)" offset="0.835938"/><stop stop-opacity="1" stop-color="rgb(92.581177%, 90.376282%, 2.793884%)" offset="0.839844"/><stop stop-opacity="1" stop-color="rgb(92.936707%, 90.542603%, 2.540588%)" offset="0.84375"/><stop stop-opacity="1" stop-color="rgb(93.292236%, 90.707397%, 2.285767%)" offset="0.847656"/><stop stop-opacity="1" stop-color="rgb(93.649292%, 90.873718%, 2.032471%)" offset="0.851562"/><stop stop-opacity="1" stop-color="rgb(94.004822%, 91.038513%, 1.779175%)" offset="0.855469"/><stop stop-opacity="1" stop-color="rgb(94.360352%, 91.204834%, 1.525879%)" offset="0.859375"/><stop stop-opacity="1" stop-color="rgb(94.715881%, 91.369629%, 1.271057%)" offset="0.863281"/><stop stop-opacity="1" stop-color="rgb(95.071411%, 91.53595%, 1.017761%)" offset="0.867188"/><stop stop-opacity="1" stop-color="rgb(95.426941%, 91.700745%, 0.762939%)" offset="0.871094"/><stop stop-opacity="1" stop-color="rgb(95.782471%, 91.86554%, 0.509644%)" offset="0.875"/><stop stop-opacity="1" stop-color="rgb(96.138%, 92.030334%, 0.256348%)" offset="0.878906"/><stop stop-opacity="1" stop-color="rgb(96.495056%, 92.196655%, 0.00305176%)" offset="0.882812"/><stop stop-opacity="1" stop-color="rgb(96.496582%, 92.198181%, 0.00152588%)" offset="0.890625"/><stop stop-opacity="1" stop-color="rgb(96.499634%, 92.199707%, 0%)" offset="0.90625"/><stop stop-opacity="1" stop-color="rgb(96.499634%, 92.199707%, 0%)" offset="0.9375"/><stop stop-opacity="1" stop-color="rgb(96.499634%, 92.199707%, 0%)" offset="1"/></linearGradient><clipPath id="3b5efe52f7"><path d="M 48 26 L 50 26 L 50 26.523438 L 48 26.523438 Z M 48 26 " clip-rule="nonzero"/></clipPath><clipPath id="ff8e1d9a4d"><path d="M 49 7.402344 L 58.429688 7.402344 L 58.429688 29.605469 L 49 29.605469 Z M 49 7.402344 " clip-rule="nonzero"/></clipPath></defs><g clip-path="url(#2c15430e21)"><path fill="#30a7ff" d="M 46.957031 32.515625 L 46.957031 29.734375 C 45.632812 29.464844 44.398438 28.941406 43.308594 28.222656 L 40.914062 30.617188 L 37.925781 27.628906 L 40.320312 25.234375 C 39.601562 24.144531 39.078125 22.910156 38.808594 21.585938 L 35.421875 21.585938 L 35.421875 17.359375 L 38.808594 17.359375 C 39.078125 16.035156 39.601562 14.800781 40.320312 13.710938 L 37.925781 11.316406 L 40.914062 8.328125 L 43.308594 10.722656 C 44.398438 10.003906 45.632812 9.480469 46.957031 9.210938 L 46.957031 6.429688 C 47.140625 6.421875 47.324219 6.414062 47.511719 6.414062 C 50.863281 6.414062 53.917969 7.679688 56.230469 9.753906 C 53.6875 7.125 50.125 5.488281 46.179688 5.488281 C 38.457031 5.488281 32.199219 11.75 32.199219 19.472656 C 32.199219 27.195312 38.457031 33.457031 46.179688 33.457031 C 50.125 33.457031 53.6875 31.820312 56.230469 29.191406 C 53.917969 31.265625 50.863281 32.53125 47.511719 32.53125 C 47.324219 32.53125 47.140625 32.523438 46.957031 32.515625 " fill-opacity="1" fill-rule="nonzero"/></g><g clip-path="url(#9306f81ff6)"><path fill="#40f400" d="M 59.683594 11.042969 L 62.589844 11.042969 C 59.675781 6.011719 54.234375 2.628906 48.003906 2.628906 C 43.25 2.628906 38.960938 4.601562 35.898438 7.765625 C 38.683594 5.265625 42.363281 3.742188 46.402344 3.742188 C 51.988281 3.742188 56.894531 6.65625 59.683594 11.042969 " fill-opacity="1" fill-rule="nonzero"/></g><g clip-path="url(#8d48e5c77c)"><path fill="#40f400" d="M 59.683594 27.902344 C 56.894531 32.289062 51.988281 35.203125 46.402344 35.203125 C 42.363281 35.203125 38.683594 33.679688 35.898438 31.179688 C 38.960938 34.347656 43.25 36.316406 48.003906 36.316406 C 54.234375 36.316406 59.675781 32.933594 62.589844 27.902344 L 59.683594 27.902344 " fill-opacity="1" fill-rule="nonzero"/></g><g clip-path="url(#7fcee552ac)"><g clip-path="url(#7c4fbd5625)"><path fill="url(#e84a501ba8)" d="M 44.351562 16.164062 L 44.351562 24.644531 L 53.230469 24.644531 L 53.230469 16.164062 Z M 44.351562 16.164062 " fill-rule="nonzero"/></g></g><path fill="#5e5f5f" d="M 49.9375 25.039062 C 49.265625 25.160156 48.578125 25.179688 47.871094 25.039062 C 47.765625 25.019531 47.675781 25.121094 47.675781 25.222656 C 47.675781 25.324219 47.761719 25.394531 47.871094 25.410156 C 48.570312 25.484375 49.257812 25.488281 49.9375 25.410156 C 50.042969 25.394531 50.128906 25.324219 50.128906 25.222656 C 50.128906 25.121094 50.039062 25.019531 49.9375 25.039062 Z M 49.9375 25.039062 " fill-opacity="1" fill-rule="evenodd"/><path fill="#5e5f5f" d="M 49.671875 25.59375 C 49.011719 25.648438 48.792969 25.65625 48.066406 25.589844 C 47.964844 25.578125 47.875 25.671875 47.875 25.773438 C 47.875 25.875 47.960938 25.953125 48.066406 25.957031 C 48.800781 25.984375 49.023438 25.996094 49.671875 25.960938 C 49.773438 25.957031 49.863281 25.878906 49.863281 25.777344 C 49.863281 25.675781 49.773438 25.582031 49.671875 25.59375 Z M 49.671875 25.59375 " fill-opacity="1" fill-rule="evenodd"/><g clip-path="url(#3b5efe52f7)"><path fill="#5e5f5f" d="M 48.546875 26.09375 C 48.570312 26.523438 49.238281 26.425781 49.253906 26.097656 C 49.167969 26.117188 49.0625 26.128906 48.9375 26.128906 C 48.8125 26.128906 48.640625 26.117188 48.546875 26.09375 Z M 48.546875 26.09375 " fill-opacity="1" fill-rule="evenodd"/></g><path fill="#006aff" d="M 54.800781 22.617188 C 54.722656 20.726562 53.917969 18.785156 52.917969 17.070312 C 53.457031 18.902344 53.78125 20.910156 53.484375 22.722656 C 52.960938 25.90625 49.949219 28.054688 46.792969 27.402344 C 46.175781 27.277344 45.605469 27.050781 45.09375 26.746094 C 46.171875 27.875 47.714844 28.554688 49.398438 28.484375 C 52.511719 28.355469 54.929688 25.726562 54.800781 22.617188 " fill-opacity="1" fill-rule="nonzero"/><path fill="#5e5f5f" d="M 48.339844 26.324219 C 45.167969 25.75 43.179688 22.628906 43.882812 19.480469 C 44.285156 17.6875 45.335938 15.949219 46.523438 14.449219 C 44.953125 15.667969 43.480469 17.167969 42.703125 18.890625 C 41.421875 21.726562 42.679688 25.070312 45.519531 26.351562 C 47.054688 27.046875 48.738281 26.992188 50.164062 26.351562 C 49.574219 26.4375 48.957031 26.433594 48.339844 26.324219 " fill-opacity="1" fill-rule="nonzero"/><g clip-path="url(#ff8e1d9a4d)"><path fill="#ff7300" d="M 51.738281 7.398438 L 51.734375 7.402344 C 48.929688 13.195312 55.972656 16.492188 55.921875 22.316406 C 55.890625 26 52.8125 28.871094 49.257812 29.195312 C 49.621094 29.273438 49.996094 29.328125 50.382812 29.351562 C 54.4375 29.601562 57.933594 26.515625 58.183594 22.457031 C 58.542969 16.589844 52.21875 14.472656 51.738281 7.398438 " fill-opacity="1" fill-rule="nonzero"/></g><g fill="#0992f6" fill-opacity="1"><g transform="translate(58.207828, 26.5732)"><g><path d="M 8.40625 -15.671875 C 9.269531 -15.671875 10.128906 -15.570312 10.984375 -15.375 C 11.835938 -15.175781 12.472656 -14.976562 12.890625 -14.78125 L 13.5 -14.484375 L 11.78125 -11.046875 C 10.59375 -11.679688 9.46875 -12 8.40625 -12 C 7.8125 -12 7.390625 -11.929688 7.140625 -11.796875 C 6.890625 -11.671875 6.765625 -11.429688 6.765625 -11.078125 C 6.765625 -10.992188 6.773438 -10.910156 6.796875 -10.828125 C 6.816406 -10.753906 6.851562 -10.679688 6.90625 -10.609375 C 6.96875 -10.546875 7.023438 -10.488281 7.078125 -10.4375 C 7.128906 -10.382812 7.210938 -10.328125 7.328125 -10.265625 C 7.453125 -10.210938 7.546875 -10.171875 7.609375 -10.140625 C 7.679688 -10.109375 7.796875 -10.0625 7.953125 -10 C 8.109375 -9.945312 8.226562 -9.90625 8.3125 -9.875 C 8.394531 -9.84375 8.53125 -9.796875 8.71875 -9.734375 C 8.90625 -9.671875 9.046875 -9.632812 9.140625 -9.625 C 9.753906 -9.4375 10.285156 -9.234375 10.734375 -9.015625 C 11.191406 -8.804688 11.671875 -8.507812 12.171875 -8.125 C 12.679688 -7.75 13.078125 -7.273438 13.359375 -6.703125 C 13.640625 -6.128906 13.78125 -5.476562 13.78125 -4.75 C 13.78125 -1.289062 11.375 0.4375 6.5625 0.4375 C 5.46875 0.4375 4.429688 0.269531 3.453125 -0.0625 C 2.472656 -0.394531 1.765625 -0.726562 1.328125 -1.0625 L 0.6875 -1.609375 L 2.8125 -5.1875 C 2.976562 -5.050781 3.1875 -4.890625 3.4375 -4.703125 C 3.695312 -4.515625 4.160156 -4.253906 4.828125 -3.921875 C 5.503906 -3.597656 6.09375 -3.4375 6.59375 -3.4375 C 7.675781 -3.4375 8.21875 -3.804688 8.21875 -4.546875 C 8.21875 -4.878906 8.078125 -5.140625 7.796875 -5.328125 C 7.523438 -5.515625 7.054688 -5.726562 6.390625 -5.96875 C 5.734375 -6.207031 5.21875 -6.425781 4.84375 -6.625 C 3.882812 -7.113281 3.128906 -7.671875 2.578125 -8.296875 C 2.023438 -8.921875 1.75 -9.75 1.75 -10.78125 C 1.75 -12.320312 2.347656 -13.519531 3.546875 -14.375 C 4.742188 -15.238281 6.363281 -15.671875 8.40625 -15.671875 Z M 8.40625 -15.671875 "/></g></g></g><g fill="#0992f6" fill-opacity="1"><g transform="translate(70.498244, 26.5732)"><g><path d="M 2.28125 -23.71875 C 2.894531 -24.332031 3.628906 -24.640625 4.484375 -24.640625 C 5.335938 -24.640625 6.066406 -24.332031 6.671875 -23.71875 C 7.285156 -23.101562 7.59375 -22.367188 7.59375 -21.515625 C 7.59375 -20.671875 7.285156 -19.941406 6.671875 -19.328125 C 6.066406 -18.710938 5.335938 -18.40625 4.484375 -18.40625 C 3.628906 -18.40625 2.894531 -18.710938 2.28125 -19.328125 C 1.664062 -19.941406 1.359375 -20.671875 1.359375 -21.515625 C 1.359375 -22.367188 1.664062 -23.101562 2.28125 -23.71875 Z M 1.78125 -15.234375 L 1.78125 0 L 7.03125 0 L 7.03125 -15.234375 Z M 1.78125 -15.234375 "/></g></g></g><g fill="#0992f6" fill-opacity="1"><g transform="translate(77.147958, 26.5732)"><g><path d="M 1.78125 0 L 1.78125 -15.234375 L 7.03125 -15.234375 L 7.03125 -13.03125 L 7.09375 -13.03125 C 7.132812 -13.113281 7.195312 -13.210938 7.28125 -13.328125 C 7.375 -13.441406 7.566406 -13.644531 7.859375 -13.9375 C 8.160156 -14.238281 8.476562 -14.507812 8.8125 -14.75 C 9.15625 -14.988281 9.59375 -15.203125 10.125 -15.390625 C 10.65625 -15.578125 11.195312 -15.671875 11.75 -15.671875 C 12.320312 -15.671875 12.882812 -15.59375 13.4375 -15.4375 C 14 -15.28125 14.410156 -15.125 14.671875 -14.96875 L 15.078125 -14.71875 L 12.890625 -10.265625 C 12.234375 -10.828125 11.320312 -11.109375 10.15625 -11.109375 C 9.519531 -11.109375 8.972656 -10.96875 8.515625 -10.6875 C 8.066406 -10.40625 7.742188 -10.066406 7.546875 -9.671875 C 7.359375 -9.273438 7.222656 -8.9375 7.140625 -8.65625 C 7.066406 -8.382812 7.03125 -8.171875 7.03125 -8.015625 L 7.03125 0 Z M 1.78125 0 "/></g></g></g><g fill="#0992f6" fill-opacity="1"><g transform="translate(89.616501, 26.5732)"><g><path d="M 17.1875 -6.890625 L 6.140625 -6.890625 C 6.140625 -5.816406 6.484375 -5.019531 7.171875 -4.5 C 7.867188 -3.988281 8.625 -3.734375 9.4375 -3.734375 C 10.289062 -3.734375 10.960938 -3.847656 11.453125 -4.078125 C 11.953125 -4.304688 12.519531 -4.757812 13.15625 -5.4375 L 16.953125 -3.53125 C 15.367188 -0.882812 12.734375 0.4375 9.046875 0.4375 C 6.753906 0.4375 4.785156 -0.347656 3.140625 -1.921875 C 1.503906 -3.492188 0.6875 -5.382812 0.6875 -7.59375 C 0.6875 -9.8125 1.503906 -11.710938 3.140625 -13.296875 C 4.785156 -14.878906 6.753906 -15.671875 9.046875 -15.671875 C 11.460938 -15.671875 13.425781 -14.972656 14.9375 -13.578125 C 16.457031 -12.179688 17.21875 -10.1875 17.21875 -7.59375 C 17.21875 -7.238281 17.207031 -7.003906 17.1875 -6.890625 Z M 6.296875 -9.796875 L 12.078125 -9.796875 C 11.960938 -10.585938 11.648438 -11.195312 11.140625 -11.625 C 10.640625 -12.050781 9.992188 -12.265625 9.203125 -12.265625 C 8.328125 -12.265625 7.632812 -12.035156 7.125 -11.578125 C 6.613281 -11.117188 6.335938 -10.523438 6.296875 -9.796875 Z M 6.296875 -9.796875 "/></g></g></g><g fill="#0992f6" fill-opacity="1"><g transform="translate(105.202279, 26.5732)"><g><path d="M 9.890625 -11.375 C 8.898438 -11.375 8.046875 -11.003906 7.328125 -10.265625 C 6.617188 -9.535156 6.265625 -8.65625 6.265625 -7.625 C 6.265625 -6.582031 6.617188 -5.691406 7.328125 -4.953125 C 8.046875 -4.222656 8.898438 -3.859375 9.890625 -3.859375 C 10.359375 -3.859375 10.804688 -3.914062 11.234375 -4.03125 C 11.660156 -4.15625 11.972656 -4.273438 12.171875 -4.390625 L 12.4375 -4.578125 L 14.21875 -0.921875 C 14.082031 -0.816406 13.890625 -0.691406 13.640625 -0.546875 C 13.390625 -0.398438 12.820312 -0.203125 11.9375 0.046875 C 11.0625 0.304688 10.117188 0.4375 9.109375 0.4375 C 6.878906 0.4375 4.914062 -0.347656 3.21875 -1.921875 C 1.53125 -3.492188 0.6875 -5.375 0.6875 -7.5625 C 0.6875 -9.78125 1.53125 -11.6875 3.21875 -13.28125 C 4.914062 -14.875 6.878906 -15.671875 9.109375 -15.671875 C 10.117188 -15.671875 11.050781 -15.550781 11.90625 -15.3125 C 12.757812 -15.082031 13.363281 -14.847656 13.71875 -14.609375 L 14.21875 -14.25 L 12.4375 -10.65625 C 11.78125 -11.132812 10.929688 -11.375 9.890625 -11.375 Z M 9.890625 -11.375 "/></g></g></g><g fill="#0992f6" fill-opacity="1"><g transform="translate(117.463005, 26.5732)"><g><path d="M 3.21875 -1.8125 C 1.53125 -3.3125 0.6875 -5.238281 0.6875 -7.59375 C 0.6875 -9.945312 1.566406 -11.878906 3.328125 -13.390625 C 5.085938 -14.910156 7.265625 -15.671875 9.859375 -15.671875 C 12.410156 -15.671875 14.5625 -14.910156 16.3125 -13.390625 C 18.0625 -11.867188 18.9375 -9.9375 18.9375 -7.59375 C 18.9375 -5.257812 18.078125 -3.335938 16.359375 -1.828125 C 14.648438 -0.316406 12.484375 0.4375 9.859375 0.4375 C 7.128906 0.4375 4.914062 -0.3125 3.21875 -1.8125 Z M 7.28125 -10.171875 C 6.601562 -9.503906 6.265625 -8.644531 6.265625 -7.59375 C 6.265625 -6.550781 6.585938 -5.695312 7.234375 -5.03125 C 7.890625 -4.363281 8.753906 -4.03125 9.828125 -4.03125 C 10.859375 -4.03125 11.703125 -4.367188 12.359375 -5.046875 C 13.023438 -5.722656 13.359375 -6.570312 13.359375 -7.59375 C 13.359375 -8.644531 13.015625 -9.503906 12.328125 -10.171875 C 11.648438 -10.847656 10.816406 -11.1875 9.828125 -11.1875 C 8.816406 -11.1875 7.96875 -10.847656 7.28125 -10.171875 Z M 7.28125 -10.171875 "/></g></g></g><g fill="#0992f6" fill-opacity="1"><g transform="translate(134.770683, 26.5732)"><g><path d="M 2.28125 -23.71875 C 2.894531 -24.332031 3.628906 -24.640625 4.484375 -24.640625 C 5.335938 -24.640625 6.066406 -24.332031 6.671875 -23.71875 C 7.285156 -23.101562 7.59375 -22.367188 7.59375 -21.515625 C 7.59375 -20.671875 7.285156 -19.941406 6.671875 -19.328125 C 6.066406 -18.710938 5.335938 -18.40625 4.484375 -18.40625 C 3.628906 -18.40625 2.894531 -18.710938 2.28125 -19.328125 C 1.664062 -19.941406 1.359375 -20.671875 1.359375 -21.515625 C 1.359375 -22.367188 1.664062 -23.101562 2.28125 -23.71875 Z M 1.78125 -15.234375 L 1.78125 0 L 7.03125 0 L 7.03125 -15.234375 Z M 1.78125 -15.234375 "/></g></g></g><g fill="#0992f6" fill-opacity="1"><g transform="translate(141.420398, 26.5732)"><g><path d="M 1.78125 0 L 1.78125 -15.234375 L 7.03125 -15.234375 L 7.03125 -13.625 L 7.09375 -13.625 C 8.457031 -14.988281 9.910156 -15.671875 11.453125 -15.671875 C 12.210938 -15.671875 12.960938 -15.570312 13.703125 -15.375 C 14.441406 -15.175781 15.148438 -14.867188 15.828125 -14.453125 C 16.515625 -14.035156 17.070312 -13.445312 17.5 -12.6875 C 17.925781 -11.925781 18.140625 -11.039062 18.140625 -10.03125 L 18.140625 0 L 12.890625 0 L 12.890625 -8.609375 C 12.890625 -9.398438 12.632812 -10.09375 12.125 -10.6875 C 11.625 -11.28125 10.96875 -11.578125 10.15625 -11.578125 C 9.363281 -11.578125 8.644531 -11.269531 8 -10.65625 C 7.351562 -10.039062 7.03125 -9.359375 7.03125 -8.609375 L 7.03125 0 Z M 1.78125 0 "/></g></g></g></svg>